<svg xmlns="http://www.w3.org/2000/svg" viewBox="0 0 960 640" role="img" aria-label="">
  <defs>
    <linearGradient id="bg-board" x1="0" y1="0" x2="1" y2="1">
      <stop offset="0" stop-color="#fbf7ef"/>
      <stop offset="1" stop-color="#eadfce"/>
    </linearGradient>
    <filter id="soft-board" x="-20%" y="-20%" width="140%" height="140%">
      <feDropShadow dx="0" dy="16" stdDeviation="18" flood-color="#182734" flood-opacity="0.12"/>
    </filter>
    <pattern id="grid-board" width="42" height="42" patternUnits="userSpaceOnUse">
      <path d="M42 0H0v42" fill="none" stroke="#17202a" stroke-opacity="0.06" stroke-width="1"/>
    </pattern>
  </defs>
  <rect width="960" height="640" fill="url(#bg-board)"/>
  <rect width="960" height="640" fill="url(#grid-board)"/>
  <circle cx="128" cy="106" r="92" fill="#315f8a" opacity="0.10"/>
  <circle cx="820" cy="500" r="132" fill="#2f6b58" opacity="0.12"/>
  
  <g filter="url(#soft-board)">
    <rect x="204" y="110" width="552" height="420" rx="24" fill="#fffdf8" stroke="#dfd4c2"/>
    <rect x="256" y="158" width="78" height="54" rx="10" fill="#9a6a42" opacity="0.54"/>
<rect x="368" y="158" width="78" height="54" rx="10" fill="#2f6b58" opacity="0.78"/>
<rect x="480" y="158" width="78" height="54" rx="10" fill="#315f8a" opacity="0.54"/>
<rect x="592" y="158" width="78" height="54" rx="10" fill="#f5f6f2" opacity="0.78"/>
<rect x="256" y="238" width="78" height="54" rx="10" fill="#9a6a42" opacity="0.78"/>
<rect x="368" y="238" width="78" height="54" rx="10" fill="#2f6b58" opacity="0.54"/>
<rect x="480" y="238" width="78" height="54" rx="10" fill="#315f8a" opacity="0.78"/>
<rect x="592" y="238" width="78" height="54" rx="10" fill="#f5f6f2" opacity="0.54"/>
<rect x="256" y="318" width="78" height="54" rx="10" fill="#9a6a42" opacity="0.54"/>
<rect x="368" y="318" width="78" height="54" rx="10" fill="#2f6b58" opacity="0.78"/>
<rect x="480" y="318" width="78" height="54" rx="10" fill="#315f8a" opacity="0.54"/>
<rect x="592" y="318" width="78" height="54" rx="10" fill="#f5f6f2" opacity="0.78"/>
<rect x="256" y="398" width="78" height="54" rx="10" fill="#9a6a42" opacity="0.78"/>
<rect x="368" y="398" width="78" height="54" rx="10" fill="#2f6b58" opacity="0.54"/>
<rect x="480" y="398" width="78" height="54" rx="10" fill="#315f8a" opacity="0.78"/>
<rect x="592" y="398" width="78" height="54" rx="10" fill="#f5f6f2" opacity="0.54"/>
  </g>
</svg>
