<svg xmlns="http://www.w3.org/2000/svg" viewBox="0 0 960 640" role="img" aria-label="">
  <defs>
    <linearGradient id="bg-home" x1="0" y1="0" x2="1" y2="1">
      <stop offset="0" stop-color="#f8fbf8"/>
      <stop offset="1" stop-color="#e5efe8"/>
    </linearGradient>
    <filter id="soft-home" x="-20%" y="-20%" width="140%" height="140%">
      <feDropShadow dx="0" dy="16" stdDeviation="18" flood-color="#182734" flood-opacity="0.12"/>
    </filter>
    <pattern id="grid-home" width="42" height="42" patternUnits="userSpaceOnUse">
      <path d="M42 0H0v42" fill="none" stroke="#17202a" stroke-opacity="0.06" stroke-width="1"/>
    </pattern>
  </defs>
  <rect width="960" height="640" fill="url(#bg-home)"/>
  <rect width="960" height="640" fill="url(#grid-home)"/>
  <circle cx="128" cy="106" r="92" fill="#315f8a" opacity="0.10"/>
  <circle cx="820" cy="500" r="132" fill="#9a6a42" opacity="0.12"/>
  
  <g filter="url(#soft-home)">
    <rect x="170" y="108" width="620" height="424" rx="18" fill="#fffdf8" stroke="#dce3dc"/>
    <rect x="210" y="152" width="250" height="24" rx="12" fill="#2f6b58" opacity="0.88"/>
    <rect x="210" y="198" width="500" height="14" rx="7" fill="#61707a" opacity="0.28"/>
    <rect x="210" y="226" width="430" height="14" rx="7" fill="#61707a" opacity="0.20"/>
    <rect x="210" y="286" width="150" height="150" rx="12" fill="#2f6b58" opacity="0.16"/>
    <rect x="390" y="286" width="150" height="150" rx="12" fill="#315f8a" opacity="0.16"/>
    <rect x="570" y="286" width="150" height="150" rx="12" fill="#9a6a42" opacity="0.18"/>
    <path d="M238 388h94M418 388h94M598 388h94" stroke="#fffdf8" stroke-width="10" stroke-linecap="round" opacity="0.86"/>
    <path d="M238 416h58M418 416h58M598 416h58" stroke="#fffdf8" stroke-width="8" stroke-linecap="round" opacity="0.72"/>
  </g>
</svg>
