<svg xmlns="http://www.w3.org/2000/svg" viewBox="0 0 960 640" role="img" aria-label="">
  <defs>
    <linearGradient id="bg-knowledge" x1="0" y1="0" x2="1" y2="1">
      <stop offset="0" stop-color="#fbfaf4"/>
      <stop offset="1" stop-color="#ece5d4"/>
    </linearGradient>
    <filter id="soft-knowledge" x="-20%" y="-20%" width="140%" height="140%">
      <feDropShadow dx="0" dy="16" stdDeviation="18" flood-color="#182734" flood-opacity="0.12"/>
    </filter>
    <pattern id="grid-knowledge" width="42" height="42" patternUnits="userSpaceOnUse">
      <path d="M42 0H0v42" fill="none" stroke="#17202a" stroke-opacity="0.06" stroke-width="1"/>
    </pattern>
  </defs>
  <rect width="960" height="640" fill="url(#bg-knowledge)"/>
  <rect width="960" height="640" fill="url(#grid-knowledge)"/>
  <circle cx="128" cy="106" r="92" fill="#315f8a" opacity="0.10"/>
  <circle cx="820" cy="500" r="132" fill="#2f6b58" opacity="0.12"/>
  
  <g filter="url(#soft-knowledge)">
    <path d="M184 172h212l34 42h346v278H184z" fill="#fffdf8" stroke="#d9d1bf"/>
    <path d="M236 292c96-78 178-58 248 0s151 74 242-8" fill="none" stroke="#7a633e" stroke-width="8" stroke-linecap="round" opacity="0.52"/>
    <circle cx="236" cy="292" r="28" fill="#7a633e" opacity="0.78"/>
    <circle cx="410" cy="248" r="24" fill="#315f8a" opacity="0.74"/>
    <circle cx="566" cy="328" r="26" fill="#2f6b58" opacity="0.72"/>
    <circle cx="726" cy="284" r="28" fill="#7a633e" opacity="0.64"/>
    <rect x="244" y="394" width="392" height="14" rx="7" fill="#61707a" opacity="0.24"/>
    <rect x="244" y="426" width="286" height="14" rx="7" fill="#61707a" opacity="0.18"/>
  </g>
</svg>
