<svg xmlns="http://www.w3.org/2000/svg" viewBox="0 0 960 640" role="img" aria-label="">
  <defs>
    <linearGradient id="bg-games" x1="0" y1="0" x2="1" y2="1">
      <stop offset="0" stop-color="#fbf6ef"/>
      <stop offset="1" stop-color="#eadfce"/>
    </linearGradient>
    <filter id="soft-games" x="-20%" y="-20%" width="140%" height="140%">
      <feDropShadow dx="0" dy="16" stdDeviation="18" flood-color="#182734" flood-opacity="0.12"/>
    </filter>
    <pattern id="grid-games" width="42" height="42" patternUnits="userSpaceOnUse">
      <path d="M42 0H0v42" fill="none" stroke="#17202a" stroke-opacity="0.06" stroke-width="1"/>
    </pattern>
  </defs>
  <rect width="960" height="640" fill="url(#bg-games)"/>
  <rect width="960" height="640" fill="url(#grid-games)"/>
  <circle cx="128" cy="106" r="92" fill="#2f6b58" opacity="0.10"/>
  <circle cx="820" cy="500" r="132" fill="#315f8a" opacity="0.12"/>
  
  <g filter="url(#soft-games)">
    <rect x="212" y="116" width="536" height="408" rx="24" fill="#fffdf8" stroke="#dfd4c2"/>
    <rect x="260" y="170" width="78" height="64" rx="12" fill="#9a6a42" opacity="0.56"/>
<rect x="372" y="170" width="78" height="64" rx="12" fill="#315f8a" opacity="0.74"/>
<rect x="484" y="170" width="78" height="64" rx="12" fill="#2f6b58" opacity="0.56"/>
<rect x="596" y="170" width="78" height="64" rx="12" fill="#9a6a42" opacity="0.74"/>
<rect x="260" y="262" width="78" height="64" rx="12" fill="#315f8a" opacity="0.74"/>
<rect x="372" y="262" width="78" height="64" rx="12" fill="#2f6b58" opacity="0.56"/>
<rect x="484" y="262" width="78" height="64" rx="12" fill="#9a6a42" opacity="0.74"/>
<rect x="596" y="262" width="78" height="64" rx="12" fill="#315f8a" opacity="0.56"/>
<rect x="260" y="354" width="78" height="64" rx="12" fill="#2f6b58" opacity="0.56"/>
<rect x="372" y="354" width="78" height="64" rx="12" fill="#9a6a42" opacity="0.74"/>
<rect x="484" y="354" width="78" height="64" rx="12" fill="#315f8a" opacity="0.56"/>
<rect x="596" y="354" width="78" height="64" rx="12" fill="#2f6b58" opacity="0.74"/>
    <path d="M296 472h368" stroke="#17202a" stroke-opacity="0.16" stroke-width="12" stroke-linecap="round"/>
  </g>
</svg>
