<svg xmlns="http://www.w3.org/2000/svg" viewBox="0 0 960 640" role="img" aria-label="">
  <defs>
    <linearGradient id="bg-vault" x1="0" y1="0" x2="1" y2="1">
      <stop offset="0" stop-color="#fbfaf4"/>
      <stop offset="1" stop-color="#e8e1cf"/>
    </linearGradient>
    <filter id="soft-vault" x="-20%" y="-20%" width="140%" height="140%">
      <feDropShadow dx="0" dy="16" stdDeviation="18" flood-color="#182734" flood-opacity="0.12"/>
    </filter>
    <pattern id="grid-vault" width="42" height="42" patternUnits="userSpaceOnUse">
      <path d="M42 0H0v42" fill="none" stroke="#17202a" stroke-opacity="0.06" stroke-width="1"/>
    </pattern>
  </defs>
  <rect width="960" height="640" fill="url(#bg-vault)"/>
  <rect width="960" height="640" fill="url(#grid-vault)"/>
  <circle cx="128" cy="106" r="92" fill="#315f8a" opacity="0.10"/>
  <circle cx="820" cy="500" r="132" fill="#2f6b58" opacity="0.12"/>
  
  <g filter="url(#soft-vault)">
    <path d="M154 202h226l34 46h392v246H154z" fill="#fffdf8" stroke="#d9d1bf"/>
    <path d="M236 352h488" stroke="#17202a" stroke-opacity="0.12" stroke-width="8"/>
    <path d="M478 262v176M334 352v86M622 352v86" stroke="#17202a" stroke-opacity="0.12" stroke-width="8"/>
    <circle cx="478" cy="262" r="30" fill="#7a633e" opacity="0.72"/>
    <circle cx="334" cy="352" r="24" fill="#2f6b58" opacity="0.72"/>
    <circle cx="622" cy="352" r="24" fill="#315f8a" opacity="0.72"/>
    <circle cx="334" cy="438" r="20" fill="#7a633e" opacity="0.46"/>
    <circle cx="478" cy="438" r="20" fill="#2f6b58" opacity="0.46"/>
    <circle cx="622" cy="438" r="20" fill="#315f8a" opacity="0.46"/>
  </g>
</svg>
