<svg xmlns="http://www.w3.org/2000/svg" viewBox="0 0 960 640" role="img" aria-label="">
  <defs>
    <linearGradient id="bg-workspace" x1="0" y1="0" x2="1" y2="1">
      <stop offset="0" stop-color="#f9fbf8"/>
      <stop offset="1" stop-color="#e7eee7"/>
    </linearGradient>
    <filter id="soft-workspace" x="-20%" y="-20%" width="140%" height="140%">
      <feDropShadow dx="0" dy="16" stdDeviation="18" flood-color="#182734" flood-opacity="0.12"/>
    </filter>
    <pattern id="grid-workspace" width="42" height="42" patternUnits="userSpaceOnUse">
      <path d="M42 0H0v42" fill="none" stroke="#17202a" stroke-opacity="0.06" stroke-width="1"/>
    </pattern>
  </defs>
  <rect width="960" height="640" fill="url(#bg-workspace)"/>
  <rect width="960" height="640" fill="url(#grid-workspace)"/>
  <circle cx="128" cy="106" r="92" fill="#9a6a42" opacity="0.10"/>
  <circle cx="820" cy="500" r="132" fill="#315f8a" opacity="0.12"/>
  
  <g filter="url(#soft-workspace)">
    <rect x="138" y="118" width="684" height="404" rx="18" fill="#fffdf8" stroke="#dce3dc"/>
    <rect x="176" y="160" width="180" height="304" rx="14" fill="#2f6b58" opacity="0.12"/>
    <rect x="392" y="160" width="392" height="132" rx="14" fill="#9a6a42" opacity="0.12"/>
    <rect x="392" y="332" width="178" height="132" rx="14" fill="#315f8a" opacity="0.14"/>
    <rect x="606" y="332" width="178" height="132" rx="14" fill="#2f6b58" opacity="0.10"/>
    <path d="M210 220h90M210 260h112M426 220h248M426 388h92M640 388h96" stroke="#17202a" stroke-opacity="0.24" stroke-width="10" stroke-linecap="round"/>
  </g>
</svg>
